<?xml version="1.0" standalone="no"?>
<!DOCTYPE svg PUBLIC "-//W3C//DTD SVG 20010904//EN"
 "http://www.w3.org/TR/2001/REC-SVG-20010904/DTD/svg10.dtd">
<svg version="1.0" xmlns="http://www.w3.org/2000/svg"
 width="832.000000pt" height="137.000000pt" viewBox="0 0 832.000000 137.000000"
 preserveAspectRatio="xMidYMid meet">

<g transform="translate(0.000000,137.000000) scale(0.100000,-0.100000)"
fill="#000000" stroke="none">
<path d="M6958 1093 c-9 -10 -18 -27 -20 -38 -3 -20 -10 -20 -353 -16 -480 4
-638 -13 -718 -80 -32 -27 -32 -28 -32 -114 0 -85 -1 -88 -28 -109 l-28 -21
-2890 -3 c-1908 -1 -2889 -5 -2889 -12 0 -12 5670 -13 5743 -1 27 4 60 17 75
28 26 19 27 25 27 106 0 77 2 88 24 111 14 15 54 36 90 48 63 21 84 22 526 26
307 2 457 0 450 -7 -6 -6 -180 -11 -465 -13 -497 -4 -528 -8 -581 -64 -22 -23
-24 -33 -21 -100 1 -41 -3 -84 -9 -95 -6 -12 -32 -31 -57 -42 l-47 -22 -2880
-5 -2880 -5 2885 0 2885 0 47 22 c25 11 51 30 57 41 6 12 11 56 11 100 0 70 2
81 25 102 52 49 96 53 583 58 l452 4 0 -26 c0 -35 29 -48 113 -48 54 0 72 4
79 16 7 12 24 16 63 16 l55 0 0 70 0 70 -54 0 c-30 0 -58 5 -61 10 -3 6 -41
10 -84 10 -62 0 -81 -4 -93 -17z m162 -78 l0 -85 -66 0 c-94 0 -104 8 -104 80
0 79 12 90 101 90 l69 0 0 -85z m118 8 l-3 -58 -50 0 -50 0 -3 44 c-5 65 0 71
58 71 l51 0 -3 -57z"/>
<path d="M7157 1064 c-18 -19 -5 -34 29 -34 28 0 35 3 32 18 -3 17 -48 29 -61
16z m40 -20 c-3 -3 -12 -4 -19 -1 -8 3 -5 6 6 6 11 1 17 -2 13 -5z"/>
<path d="M7150 995 c0 -10 11 -15 35 -15 24 0 35 5 35 15 0 10 -11 15 -35 15
-24 0 -35 -5 -35 -15z m43 -2 c-7 -2 -19 -2 -25 0 -7 3 -2 5 12 5 14 0 19 -2
13 -5z"/>
</g>
</svg>
