<?xml version="1.0" standalone="no"?>
<!DOCTYPE svg PUBLIC "-//W3C//DTD SVG 20010904//EN"
 "http://www.w3.org/TR/2001/REC-SVG-20010904/DTD/svg10.dtd">
<svg version="1.0" xmlns="http://www.w3.org/2000/svg"
 width="700.000000pt" height="700.000000pt" viewBox="0 0 700.000000 700.000000"
 preserveAspectRatio="xMidYMid meet">
<metadata>
Created by potrace 1.11, written by Peter Selinger 2001-2013
</metadata>
<g transform="translate(0.000000,700.000000) scale(0.100000,-0.100000)"
fill="#000000" stroke="none">
<path d="M3279 6926 c-2 -2 -40 -6 -84 -10 -82 -7 -90 -8 -210 -26 -122 -18
-138 -21 -250 -46 -343 -76 -727 -232 -1020 -416 -60 -38 -119 -74 -129 -81
-23 -14 -16 -9 -131 -94 -714 -529 -1206 -1337 -1340 -2203 -9 -58 -18 -115
-20 -128 -20 -122 -28 -573 -12 -722 4 -41 9 -93 12 -115 12 -115 61 -370 96
-495 264 -942 908 -1724 1784 -2163 50 -24 119 -57 155 -71 36 -15 74 -31 85
-36 72 -35 329 -117 495 -159 63 -15 234 -48 300 -56 30 -4 63 -9 72 -10 141
-27 681 -26 838 0 14 2 45 7 70 10 255 35 562 119 817 225 425 175 794 422
1122 751 130 130 167 173 329 379 43 55 173 256 230 356 43 76 123 240 176
359 7 17 18 41 24 55 6 14 32 86 57 160 80 234 139 499 162 715 2 28 8 79 13
115 8 68 6 557 -3 600 -3 14 -8 54 -12 88 -19 202 -80 468 -160 702 -214 622
-597 1166 -1110 1574 -251 199 -542 371 -831 490 -262 108 -586 194 -849 225
-49 6 -108 14 -130 17 -44 6 -540 15 -546 10z m521 -320 c19 -3 53 -8 75 -11
271 -33 540 -102 797 -204 43 -17 86 -35 95 -40 312 -156 413 -215 591 -348
500 -371 871 -874 1084 -1467 54 -151 112 -376 132 -506 14 -100 18 -127 22
-150 19 -133 25 -497 11 -645 -14 -137 -15 -148 -31 -245 -22 -134 -24 -144
-52 -252 -65 -261 -208 -611 -318 -787 -14 -22 -26 -43 -26 -46 0 -19 -229
-340 -296 -415 -149 -168 -280 -297 -394 -390 -30 -25 -60 -49 -66 -55 -6 -5
-37 -28 -68 -50 -32 -22 -70 -49 -84 -61 -15 -11 -67 -45 -117 -76 -371 -231
-723 -362 -1190 -443 -16 -3 -57 -7 -91 -10 -33 -3 -71 -8 -85 -11 -40 -9
-448 -12 -529 -3 -209 20 -194 19 -340 45 -323 59 -707 202 -980 364 -30 18
-64 38 -75 44 -49 27 -238 161 -319 227 -193 156 -404 372 -521 533 -16 23
-32 43 -36 46 -11 9 -146 215 -188 287 -52 90 -141 269 -174 348 -70 172 -151
424 -171 535 -2 14 -9 45 -14 70 -6 25 -13 63 -17 85 -3 22 -7 51 -10 65 -5
33 -16 116 -21 160 -9 76 -11 470 -3 550 38 386 114 688 257 1010 218 494 524
877 997 1248 40 32 157 109 245 162 95 58 369 200 385 200 4 0 21 6 38 14 74
31 96 40 177 67 47 16 144 45 215 64 112 29 176 43 330 70 17 3 57 8 90 11 33
3 92 9 130 13 78 8 491 6 545 -3z"/>
</g>
</svg>
